# xmcd CD database file
#
# Track frame offsets:
#	150
#	32635
#	56797
#	90327
#	107832
#	141335
#	172910
#	227955
#	246400
#	293797
#
# Disc length: 4388 seconds
#
# Revision: 7
# Processed by: cddbd v1.5.2PL0 Copyright (c) Steve Scherf et al.
# Submitted via: CDex 1.51
#
DISCID=8b11220a
DTITLE=Rare Earth - Get Ready - Made In Switzerland Recorded Live
DYEAR=1989
DGENRE=Funk
TTITLE0=Big John
TTITLE1=Big Brother
TTITLE2=Born To Wander
TTITLE3=All Or Nothing
TTITLE4=Tobacco Road
TTITLE5=Smiling Faces
TTITLE6=(I Know) I'm Losing You
TTITLE7=Can't Stop
TTITLE8=Get Ready
TTITLE9=Celebrate
EXTD=YEAR: 1989
EXTT0=
EXTT1=
EXTT2=
EXTT3=
EXTT4=
EXTT5=
EXTT6=
EXTT7=
EXTT8=
EXTT9=
PLAYORDER=
